<?xml version="1.0" encoding="UTF-8"?>
<svg width="1200pt" height="1200pt" version="1.1" viewBox="0 0 1200 1200" xmlns="http://www.w3.org/2000/svg">
 <path d="m829.04 715.38c0 37.285-30.227 67.512-67.512 67.512s-67.512-30.227-67.512-67.512 30.227-67.512 67.512-67.512 67.512 30.227 67.512 67.512z"/>
 <path d="m977.18 576.18c9.3477-130.19-21.098-238.73-88.883-315.52-66.938-75.828-169.32-117.59-288.3-117.59-80.746 0-154.01 19.738-213.72 56.688-4.8594-0.71875-9.875-0.875-14.977 0.058593-273.77 49.984-371.3 215.66-371.3 354.03 0 73.859 22.273 132.06 66.227 173 24.984 23.293 53.531 38.676 79.906 47.051 10.359 117.17 74.008 198.1 130.79 198.1h17.258c67.832 156 243.98 223.37 305.82 223.37 80.496 0 293.91-94.5 328.56-304.7 57.098-22.656 128.36-88.477 128.36-164.53 0.003906-70.465-32.184-127.87-79.738-149.95zm-884.89-22.332c0-40.766 14.855-160.79 176.96-229-24.516 45.852-39.719 98.809-45.254 157.63-36.719 30.254-66.926 93.504-76.391 190.48-6.4062-3.793-12.672-8.2305-18.457-13.621-24.457-22.801-36.863-58.285-36.863-105.49zm798.47 261.52c-21.672 0-39.707 16.668-41.41 38.258-14.055 177.52-202.38 257.28-249.35 257.28-39.301 0-175.29-53.688-228.36-171.9 12.012-8.5078 26.016-15 43.754-15h46.164c25.512 0 92.305-48.277 92.305-233.93-0.015625-135.18-66.809-186.07-92.32-186.07h-46.164c-43.801 0-66.793-48-92.305-48h-12.551c9.7578-48 31.754-105.07 65.676-143.28 51.852-58.441 129.25-87.949 223.8-87.949 96.191 0 174.34 31.633 226.02 90.18 57.852 65.543 80.363 165.14 65.09 287.4-1.4766 11.809 2.1953 23.879 10.078 32.809s19.223 14.148 31.141 14.148c20.051 0 41.52 30.742 41.52 76.453-0.011718 42.434-64.801 87.984-83.086 89.605zm-525.58-99.984c0-40.523 32.809-73.285 73.273-73.285 40.477 0 73.285 32.762 73.285 73.285 0 40.523-32.809 73.285-73.285 73.285-40.465 0.011719-73.273-32.762-73.273-73.285z"/>
</svg>
